<svg xmlns="http://www.w3.org/2000/svg" width="72" height="72" viewBox="0 0 72 72" role="img" aria-labelledby="title desc">
  <title id="title">Control Mesh Setup default key</title>
  <desc id="desc">Control Mesh local node and mesh configuration.</desc>
  <rect x="4" y="4" width="64" height="64" rx="16" fill="#071016"/>
  <rect x="7" y="7" width="58" height="58" rx="14" fill="#0B1220" stroke="#1E293B" stroke-width="1.5"/>
  <rect x="10" y="10" width="52" height="52" rx="12" fill="#101827" opacity="0.4"/>
  <g fill="#22D3EE">
    <rect x="33" y="12" width="6" height="8" rx="2"/>
    <rect x="33" y="52" width="6" height="8" rx="2"/>
    <rect x="12" y="33" width="8" height="6" rx="2"/>
    <rect x="52" y="33" width="8" height="6" rx="2"/>
    <rect x="46.7" y="16.9" width="6" height="8" rx="2" transform="rotate(45 49.7 20.9)"/>
    <rect x="46.7" y="47.1" width="6" height="8" rx="2" transform="rotate(135 49.7 51.1)"/>
    <rect x="19.3" y="47.1" width="6" height="8" rx="2" transform="rotate(-135 22.3 51.1)"/>
    <rect x="19.3" y="16.9" width="6" height="8" rx="2" transform="rotate(-45 22.3 20.9)"/>
    <circle cx="36" cy="36" r="16"/>
  </g>
  <circle cx="36" cy="36" r="12.5" fill="#E5EEF8"/>
  <circle cx="36" cy="36" r="9" fill="#0B1220"/>
  <path d="M36 30L42 36L36 42L30 36Z" fill="#22D3EE"/>
  <path d="M36 33.2L38.8 36L36 38.8L33.2 36Z" fill="#0B1220"/>
</svg>
